<svg xmlns="http://www.w3.org/2000/svg" viewBox="0 0 1440 860" role="img" aria-labelledby="title desc">
  <title id="title">X-Hub Trust And Control Plane</title>
  <desc id="desc">A simplified static architecture diagram showing how X-Terminal and generic terminals enter the X-Hub governed control plane differently before sharing the same policy, routing, and audit core.</desc>
  <defs>
    <marker id="arrow-gray" markerWidth="7" markerHeight="7" refX="5.8" refY="3.5" orient="auto" markerUnits="strokeWidth">
      <path d="M 0 0 L 7 3.5 L 0 7 z" fill="#64748b" />
    </marker>
    <marker id="arrow-green" markerWidth="7" markerHeight="7" refX="5.8" refY="3.5" orient="auto" markerUnits="strokeWidth">
      <path d="M 0 0 L 7 3.5 L 0 7 z" fill="#2d6a4f" />
    </marker>
    <marker id="arrow-red" markerWidth="7" markerHeight="7" refX="5.8" refY="3.5" orient="auto" markerUnits="strokeWidth">
      <path d="M 0 0 L 7 3.5 L 0 7 z" fill="#b42318" />
    </marker>
    <style>
      .bg { fill: #ffffff; }
      .panel { rx: 28; ry: 28; stroke-width: 1.5; }
      .client-shell { fill: #f8fafc; stroke: #cbd5e1; }
      .hub-panel { fill: #f6fbf7; stroke: #7aa58a; }
      .exec-panel { fill: #fffaf2; stroke: #d4a048; }
      .xt-band { fill: #ecfdf3; stroke: #2d6a4f; }
      .gt-band { fill: #fff1f1; stroke: #d25b5b; }
      .footer-card { fill: #f8fafc; stroke: #cbd5e1; rx: 18; ry: 18; }
      .stage { fill: #ffffff; stroke: #c9c3e4; stroke-width: 1.2; rx: 18; ry: 18; }
      .stage-green { fill: #f3fcf5; stroke: #72b08a; stroke-width: 1.3; rx: 18; ry: 18; }
      .stage-danger { fill: #fff5f5; stroke: #d77b7b; stroke-width: 1.3; rx: 18; ry: 18; }
      .surface { fill: #fcfbff; stroke: #d4c8ef; stroke-width: 1.2; rx: 18; ry: 18; }
      .panel-title { font: 600 13px 'Segoe UI', Arial, sans-serif; letter-spacing: 0.12em; fill: #475569; }
      .band-title { font: 700 19px 'Segoe UI', Arial, sans-serif; fill: #0f172a; }
      .band-copy { font: 500 16px 'Segoe UI', Arial, sans-serif; fill: #334155; }
      .card-title { font: 700 15px 'Segoe UI', Arial, sans-serif; fill: #1f2937; }
      .card-copy { font: 500 12px 'Segoe UI', Arial, sans-serif; fill: #475569; }
      .note { font: 500 13px 'Segoe UI', Arial, sans-serif; fill: #64748b; }
      .legend { font: 600 12px 'Segoe UI', Arial, sans-serif; fill: #475569; }
      .badge { fill: #e8eef3; stroke: #c2ced8; stroke-width: 1; }
      .badge-text { font: 700 11px 'Segoe UI', Arial, sans-serif; fill: #475569; text-anchor: middle; dominant-baseline: middle; }
      .flow-gray { fill: none; stroke: #64748b; stroke-width: 1.9; stroke-linecap: round; stroke-linejoin: round; marker-end: url(#arrow-gray); }
      .flow-green { fill: none; stroke: #2d6a4f; stroke-width: 2.2; stroke-linecap: round; stroke-linejoin: round; marker-end: url(#arrow-green); }
      .flow-red { fill: none; stroke: #b42318; stroke-width: 2.2; stroke-linecap: round; stroke-linejoin: round; marker-end: url(#arrow-red); }
      .flow-green-soft { fill: none; stroke: #2d6a4f; stroke-width: 1.7; stroke-dasharray: 7 6; stroke-linecap: round; stroke-linejoin: round; marker-end: url(#arrow-green); opacity: 0.75; }
      .flow-red-soft { fill: none; stroke: #b42318; stroke-width: 1.7; stroke-dasharray: 7 6; stroke-linecap: round; stroke-linejoin: round; marker-end: url(#arrow-red); opacity: 0.75; }
      .divider { fill: none; stroke: #dbe3ea; stroke-width: 1.1; }
    </style>
  </defs>

  <rect class="bg" x="0" y="0" width="1440" height="860" />

  <rect class="panel client-shell" x="40" y="70" width="300" height="660" />
  <text class="panel-title" x="64" y="106">CLIENT SURFACES</text>

  <rect class="panel xt-band" x="62" y="124" width="256" height="224" />
  <text class="band-title" x="84" y="176">X-Terminal</text>
  <text class="band-copy" x="84" y="216">Deep governed client</text>
  <text class="band-copy" x="84" y="250">Hub memory / project sync</text>
  <text class="band-copy" x="84" y="284">Supervisor / runtime truth UX</text>

  <rect class="panel gt-band" x="62" y="384" width="256" height="210" />
  <text class="band-title" x="84" y="436">Generic / 3rd-Party</text>
  <text class="band-title" x="84" y="468">Terminal</text>
  <text class="band-copy" x="84" y="516">Own local memory / skills / tools</text>
  <text class="band-copy" x="84" y="550">Calls Hub AI / capability surfaces</text>
  <text class="band-copy" x="84" y="584">only when needed</text>

  <rect class="footer-card" x="62" y="620" width="256" height="82" />
  <path class="flow-green" d="M 86 648 L 116 648" />
  <text class="legend" x="128" y="652">X-Terminal governed session path</text>
  <path class="flow-red" d="M 86 678 L 116 678" />
  <text class="legend" x="128" y="682">Generic terminal capability-call path</text>

  <rect class="panel hub-panel" x="380" y="70" width="630" height="660" />
  <text class="panel-title" x="404" y="106">X-HUB GOVERNED CONTROL PLANE</text>

  <rect class="stage" x="600" y="136" width="190" height="60" />
  <circle class="badge" cx="624" cy="166" r="13" />
  <text class="badge-text" x="624" y="166">1</text>
  <text class="card-title" x="646" y="163">Pairing + AI Gateway</text>

  <rect class="stage-green" x="452" y="248" width="250" height="84" />
  <circle class="badge" cx="476" cy="278" r="13" />
  <text class="badge-text" x="476" y="278">2</text>
  <text class="card-title" x="498" y="274">Hub Memory +</text>
  <text class="card-title" x="498" y="296">X-Constitution</text>

  <rect class="stage-green" x="452" y="360" width="250" height="84" />
  <circle class="badge" cx="476" cy="390" r="13" />
  <text class="badge-text" x="476" y="390">3</text>
  <text class="card-title" x="498" y="386">Project Sync +</text>
  <text class="card-title" x="498" y="408">Supervisor</text>

  <rect class="stage-danger" x="730" y="248" width="250" height="84" />
  <circle class="badge" cx="754" cy="278" r="13" />
  <text class="badge-text" x="754" y="278">4</text>
  <text class="card-title" x="776" y="270">Policy + Grants + Quotas</text>
  <text class="card-title" x="776" y="294">Fail-Closed + Kill Switch</text>

  <rect class="stage" x="590" y="476" width="250" height="84" />
  <circle class="badge" cx="614" cy="506" r="13" />
  <text class="badge-text" x="614" y="506">5</text>
  <text class="card-title" x="636" y="502">Model / Skills / Automation</text>
  <text class="card-title" x="636" y="524">Connector Router</text>

  <rect class="stage" x="590" y="590" width="250" height="72" />
  <circle class="badge" cx="614" cy="620" r="13" />
  <text class="badge-text" x="614" y="620">6</text>
  <text class="card-title" x="636" y="616">Audit + Evidence + Runtime Truth</text>

  <text class="note" x="452" y="706">X-Terminal uses the full 1 -&gt; 2 -&gt; 3 -&gt; 4 -&gt; 5 -&gt; 6 governed path.</text>
  <text class="note" x="452" y="726">Generic terminals usually enter at 1, keep their own local stack, then use 4 -&gt; 5 -&gt; 6.</text>

  <rect class="panel exec-panel" x="1040" y="70" width="360" height="660" />
  <text class="panel-title" x="1064" y="106">EXECUTION AND EXTERNAL SURFACES</text>

  <rect class="surface" x="1066" y="136" width="138" height="66" />
  <text class="card-title" x="1090" y="174">Official Agent Skills</text>

  <rect class="surface" x="1224" y="136" width="152" height="78" />
  <text class="card-title" x="1246" y="170">Operator Channels /</text>
  <text class="card-title" x="1246" y="192">Channel Workers</text>

  <rect class="surface" x="1066" y="260" width="138" height="84" />
  <text class="card-title" x="1087" y="294">X-Terminal Tools /</text>
  <text class="card-title" x="1087" y="316">Device Execution</text>

  <rect class="surface" x="1224" y="260" width="152" height="84" />
  <text class="card-title" x="1247" y="294">Local Runtime /</text>
  <text class="card-title" x="1247" y="316">Local Models</text>
  <text class="card-copy" x="1247" y="335">MLX / Transformers</text>

  <rect class="surface" x="1066" y="468" width="310" height="84" />
  <text class="card-title" x="1126" y="502">Optional Paid APIs / External Connectors</text>
  <text class="card-copy" x="1130" y="523">Remote providers and connector targets remain optional</text>

  <text class="note" x="1068" y="626">Execution surfaces stay outside the trusted Hub core.</text>
  <text class="note" x="1068" y="648">Hub policy, grants, audit, and memory truth remain central.</text>

  <path class="flow-green" d="M 318 236 C 410 236, 470 166, 600 166" />
  <path class="flow-red" d="M 318 488 C 454 488, 512 190, 600 166" />

  <path class="flow-green" d="M 600 166 C 556 194, 520 226, 500 248" />
  <path class="flow-green" d="M 577 332 L 577 360" />
  <path class="flow-green" d="M 702 402 C 744 402, 758 344, 776 332" />

  <path class="flow-red" d="M 790 166 C 838 186, 860 220, 876 248" />

  <path class="flow-gray" d="M 855 332 L 715 476" />
  <path class="flow-gray" d="M 715 560 L 715 590" />

  <path class="flow-gray" d="M 840 518 C 930 518, 980 170, 1066 170" />
  <path class="flow-gray" d="M 840 532 C 925 532, 980 298, 1066 298" />
  <path class="flow-gray" d="M 840 546 C 925 546, 980 300, 1224 300" />
  <path class="flow-gray" d="M 840 552 C 930 552, 980 510, 1066 510" />

  <path class="flow-gray" d="M 1224 170 L 1204 170" />
  <path class="flow-gray" d="M 1136 344 C 1090 410, 980 586, 840 620" />
  <path class="flow-gray" d="M 1300 344 C 1220 410, 1010 602, 840 632" />
  <path class="flow-gray" d="M 1220 552 C 1110 588, 980 620, 840 640" />

  <path class="flow-green-soft" d="M 590 626 C 520 704, 420 312, 318 312" />
  <path class="flow-red-soft" d="M 590 646 C 510 724, 418 548, 318 548" />

  <path class="divider" d="M 360 130 L 360 710" />
  <path class="divider" d="M 1020 130 L 1020 710" />
</svg>
