<svg xmlns="http://www.w3.org/2000/svg" viewBox="0 0 1440 860" role="img" aria-labelledby="title desc">
  <title id="title">X-Hub Deployment And Runtime Topology</title>
  <desc id="desc">A static deployment topology diagram showing user devices on the left, the user-owned Hub host in the center, and optional external systems on the right.</desc>
  <defs>
    <marker id="arrow-gray" markerWidth="7" markerHeight="7" refX="5.8" refY="3.5" orient="auto" markerUnits="strokeWidth">
      <path d="M 0 0 L 7 3.5 L 0 7 z" fill="#64748b" />
    </marker>
    <marker id="arrow-green" markerWidth="7" markerHeight="7" refX="5.8" refY="3.5" orient="auto" markerUnits="strokeWidth">
      <path d="M 0 0 L 7 3.5 L 0 7 z" fill="#2d6a4f" />
    </marker>
    <marker id="arrow-red" markerWidth="7" markerHeight="7" refX="5.8" refY="3.5" orient="auto" markerUnits="strokeWidth">
      <path d="M 0 0 L 7 3.5 L 0 7 z" fill="#b42318" />
    </marker>
    <style>
      .bg { fill: #ffffff; }
      .panel { rx: 28; ry: 28; stroke-width: 1.5; }
      .client-shell { fill: #f8fafc; stroke: #cbd5e1; }
      .hub-panel { fill: #f6fbf7; stroke: #7aa58a; }
      .ext-panel { fill: #fffaf2; stroke: #d4a048; }
      .subpanel-core { fill: #eef7f0; stroke: #98c2a6; rx: 22; ry: 22; }
      .subpanel-runtime { fill: #f8fcf9; stroke: #bdd2c4; rx: 22; ry: 22; }
      .xt-band { fill: #ecfdf3; stroke: #2d6a4f; }
      .gt-band { fill: #fff1f1; stroke: #d25b5b; }
      .footer-card { fill: #f8fafc; stroke: #cbd5e1; rx: 18; ry: 18; }
      .card { fill: #fcfbff; stroke: #d4c8ef; stroke-width: 1.2; rx: 18; ry: 18; }
      .panel-title { font: 600 13px 'Segoe UI', Arial, sans-serif; letter-spacing: 0.12em; fill: #475569; }
      .subpanel-title { font: 700 15px 'Segoe UI', Arial, sans-serif; fill: #335c48; }
      .band-title { font: 700 19px 'Segoe UI', Arial, sans-serif; fill: #0f172a; }
      .band-copy { font: 500 16px 'Segoe UI', Arial, sans-serif; fill: #334155; }
      .card-title { font: 700 15px 'Segoe UI', Arial, sans-serif; fill: #1f2937; }
      .card-copy { font: 500 12px 'Segoe UI', Arial, sans-serif; fill: #475569; }
      .note { font: 500 13px 'Segoe UI', Arial, sans-serif; fill: #64748b; }
      .legend { font: 600 12px 'Segoe UI', Arial, sans-serif; fill: #475569; }
      .flow-gray { fill: none; stroke: #64748b; stroke-width: 1.9; stroke-linecap: round; stroke-linejoin: round; marker-end: url(#arrow-gray); }
      .flow-green { fill: none; stroke: #2d6a4f; stroke-width: 2.2; stroke-linecap: round; stroke-linejoin: round; marker-end: url(#arrow-green); }
      .flow-red { fill: none; stroke: #b42318; stroke-width: 2.2; stroke-linecap: round; stroke-linejoin: round; marker-end: url(#arrow-red); }
      .divider { fill: none; stroke: #dbe3ea; stroke-width: 1.1; }
    </style>
  </defs>

  <rect class="bg" x="0" y="0" width="1440" height="860" />

  <rect class="panel client-shell" x="40" y="70" width="320" height="660" />
  <text class="panel-title" x="64" y="106">USER DEVICES</text>

  <rect class="panel xt-band" x="62" y="124" width="276" height="224" />
  <text class="band-title" x="84" y="176">X-Terminal Device</text>
  <text class="band-copy" x="84" y="216">X-Terminal UI + session runtime</text>
  <text class="band-copy" x="84" y="250">Pairs into Hub memory, project sync,</text>
  <text class="band-copy" x="84" y="284">Supervisor, and runtime truth</text>

  <rect class="panel gt-band" x="62" y="384" width="276" height="210" />
  <text class="band-title" x="84" y="436">Generic / 3rd-Party</text>
  <text class="band-title" x="84" y="468">Terminal Device</text>
  <text class="band-copy" x="84" y="516">Keeps terminal-local memory /</text>
  <text class="band-copy" x="84" y="550">skills / tools on its own system</text>
  <text class="band-copy" x="84" y="584">Calls Hub-governed capabilities only</text>

  <rect class="footer-card" x="62" y="620" width="276" height="82" />
  <path class="flow-green" d="M 86 648 L 116 648" />
  <text class="legend" x="128" y="652">X-Terminal device pairing path</text>
  <path class="flow-red" d="M 86 678 L 116 678" />
  <text class="legend" x="128" y="682">Generic terminal capability path</text>

  <rect class="panel hub-panel" x="390" y="70" width="620" height="660" />
  <text class="panel-title" x="414" y="106">OPERATOR-OWNED HUB HOST</text>

  <rect class="subpanel-core" x="420" y="126" width="250" height="560" />
  <text class="subpanel-title" x="444" y="156">Trusted Core</text>

  <rect class="card" x="444" y="182" width="202" height="64" />
  <text class="card-title" x="469" y="218">X-Hub macOS app / operator UI</text>

  <rect class="card" x="444" y="278" width="202" height="76" />
  <text class="card-title" x="469" y="310">Hub gRPC control plane</text>
  <text class="card-copy" x="469" y="332">policy / grants / audit / memory truth</text>

  <rect class="card" x="444" y="388" width="202" height="72" />
  <text class="card-title" x="469" y="422">Skills store + trust roots</text>

  <rect class="card" x="444" y="500" width="202" height="72" />
  <text class="card-title" x="469" y="534">Operator channel workers</text>

  <rect class="subpanel-runtime" x="706" y="126" width="274" height="560" />
  <text class="subpanel-title" x="730" y="156">Local Runtime Boundary</text>

  <rect class="card" x="730" y="208" width="226" height="72" />
  <text class="card-title" x="754" y="242">Bridge / network boundary</text>

  <rect class="card" x="730" y="346" width="226" height="72" />
  <text class="card-title" x="754" y="380">Python local provider runtime</text>

  <rect class="card" x="730" y="484" width="226" height="72" />
  <text class="card-title" x="754" y="518">Local models on Hub host</text>
  <text class="card-copy" x="754" y="539">MLX / Transformers</text>

  <text class="note" x="444" y="640">Trust, grants, audit, and memory truth stay on the Hub host.</text>

  <rect class="panel ext-panel" x="1040" y="70" width="360" height="660" />
  <text class="panel-title" x="1064" y="106">OPTIONAL EXTERNAL SYSTEMS</text>

  <rect class="card" x="1072" y="160" width="296" height="72" />
  <text class="card-title" x="1163" y="194">Operator channels</text>
  <text class="card-copy" x="1144" y="215">Slack / Telegram / Feishu</text>

  <rect class="card" x="1072" y="312" width="296" height="72" />
  <text class="card-title" x="1136" y="346">Paid model providers / APIs</text>

  <rect class="card" x="1072" y="464" width="296" height="72" />
  <text class="card-title" x="1138" y="498">External services via connectors</text>

  <text class="note" x="1074" y="618">Remote providers and connector targets stay optional.</text>
  <text class="note" x="1074" y="640">They are not the trusted control plane.</text>

  <path class="flow-green" d="M 338 236 C 430 236, 474 316, 444 316" />
  <path class="flow-red" d="M 338 488 C 430 488, 474 344, 444 344" />

  <path class="flow-gray" d="M 646 214 L 646 278" />
  <path class="flow-gray" d="M 545 354 L 545 388" />
  <path class="flow-gray" d="M 646 316 C 700 316, 716 244, 730 244" />
  <path class="flow-gray" d="M 646 316 C 690 316, 706 536, 730 536" />
  <path class="flow-gray" d="M 545 354 C 545 410, 545 474, 545 500" />

  <path class="flow-gray" d="M 843 280 L 843 346" />
  <path class="flow-gray" d="M 843 418 L 843 484" />

  <path class="flow-gray" d="M 646 536 C 850 536, 930 196, 1072 196" />
  <path class="flow-gray" d="M 956 382 C 1018 382, 1042 348, 1072 348" />
  <path class="flow-gray" d="M 956 244 C 1018 244, 1042 500, 1072 500" />

  <path class="divider" d="M 380 130 L 380 710" />
  <path class="divider" d="M 1020 130 L 1020 710" />
</svg>
